<svg width="64" height="64" viewBox="0 0 64 64" fill="none" xmlns="http://www.w3.org/2000/svg">
<circle cx="32" cy="32" r="32" fill="#435730"/>
<path d="M39.6008 20H24.2782C20.2652 20 17 23.2652 17 27.2782V36.4718C17 40.4848 20.2652 43.75 24.2782 43.75H39.6008C43.6138 43.75 46.879 40.4848 46.879 36.4718V27.2782C46.879 23.2652 43.6138 20 39.6008 20ZM24.2782 22.2984H39.6008C41.6755 22.2984 43.4544 23.5762 44.2022 25.3827L34.7021 31.7171C33.0243 32.8342 30.8547 32.8342 29.1784 31.7171L19.6784 25.3827C20.4246 23.5747 22.2035 22.2984 24.2782 22.2984ZM39.6008 41.4516H24.2782C21.5324 41.4516 19.2984 39.2176 19.2984 36.4718V27.8927L27.902 33.6295C29.1278 34.4462 30.5329 34.8552 31.9395 34.8552C33.3446 34.8552 34.7497 34.4462 35.977 33.6295L44.5806 27.8927V36.4718C44.5806 39.2176 42.3466 41.4516 39.6008 41.4516Z" fill="#DDE1D6"/>
</svg>
