<svg width="64" height="64" viewBox="0 0 64 64" fill="none" xmlns="http://www.w3.org/2000/svg">
<circle cx="32" cy="32" r="32" fill="#435730"/>
<path d="M30.4986 33.5381C34.4214 33.5381 37.6125 30.2774 37.6125 26.269C37.6125 22.2607 34.4214 19 30.4986 19C26.5759 19 23.3848 22.2607 23.3848 26.269C23.3848 30.2774 26.5759 33.5381 30.4986 33.5381ZM30.4986 21.0769C33.3008 21.0769 35.5799 23.4057 35.5799 26.269C35.5799 29.1324 33.3008 31.4612 30.4986 31.4612C27.6965 31.4612 25.4173 29.1324 25.4173 26.269C25.4173 23.4057 27.6965 21.0769 30.4986 21.0769ZM41 40.7615V42.1613C41 43.4559 40.5379 44.6964 39.6978 45.6532C39.4973 45.883 39.2195 45.9993 38.9404 45.9993C38.6992 45.9993 38.4566 45.912 38.2628 45.7348C37.8441 45.3527 37.8103 44.6964 38.1843 44.2686C38.6897 43.6912 38.9688 42.9435 38.9688 42.1626V40.7629C38.9688 38.6666 37.6084 36.8527 35.6585 36.3529C35.3157 36.2643 34.9472 36.3128 34.6477 36.4859C32.0718 37.9508 28.92 37.9451 26.3604 36.49C26.0542 36.3113 25.6856 36.2601 25.3428 36.3515C23.3929 36.8527 22.0311 38.6666 22.0311 40.7629V42.1626C22.0311 42.9449 22.3103 43.6926 22.8157 44.2686C23.1897 44.6964 23.1544 45.3527 22.7371 45.7348C22.317 46.1183 21.6748 46.081 21.3022 45.6545C20.4621 44.6964 20 43.4558 20 42.1626V40.7629C20 37.714 21.9932 35.0722 24.8468 34.3384C25.691 34.1196 26.6084 34.2443 27.359 34.6818C29.2967 35.7839 31.6979 35.788 33.6518 34.6776C34.393 34.2456 35.3103 34.1224 36.1572 34.3397C39.0068 35.0694 41 37.7113 41 40.7615Z" fill="#DDE1D6"/>
</svg>
