<svg width="64" height="64" viewBox="0 0 64 64" fill="none" xmlns="http://www.w3.org/2000/svg">
<circle cx="32" cy="32" r="32" fill="#435730"/>
<path d="M44.0364 19.9626L43.3674 19.284L43.3385 19.2599L43.2711 19.207L43.2134 19.1444L43.1268 19.0963L43.0546 19.0626L42.9439 19.0289H42.8813L42.7321 19H42.6166L39.4737 19.207C39.2416 19.224 39.0235 19.3245 38.8598 19.49C38.6961 19.6555 38.5979 19.8747 38.5834 20.107L38.4342 22.4027L36.1384 22.5567C35.9062 22.5725 35.6875 22.6719 35.5229 22.8365C35.3583 23.0011 35.2589 23.2197 35.2432 23.452L35.0892 25.7381L32.7886 25.8873C32.5564 25.903 32.3377 26.0024 32.1731 26.167C32.0085 26.3316 31.9092 26.5503 31.8934 26.7825L31.7346 29.1071L29.434 29.2563C29.2618 29.2668 29.0956 29.3233 28.9527 29.42C27.2695 28.9722 25.4857 29.0919 23.8775 29.7607C22.2693 30.4294 20.9264 31.6097 20.057 33.1189C19.1876 34.6281 18.8401 36.3819 19.0683 38.1085C19.2965 39.8352 20.0877 41.4385 21.3194 42.6699L21.483 42.824L21.5312 42.8673C23.0281 44.2709 25.0134 45.0356 27.0652 44.9987C29.1169 44.9619 31.0735 44.1264 32.5191 42.6699C33.6326 41.5479 34.3873 40.1201 34.6872 38.5681C34.9872 37.016 34.8188 35.4099 34.2036 33.9537L43.9738 24.1835C44.15 24.0086 44.2517 23.7723 44.2578 23.5241L44.3204 20.6364C44.318 20.3832 44.216 20.1411 44.0364 19.9626ZM24.8665 41.3079C24.6505 41.5239 24.3752 41.671 24.0755 41.7306C23.7758 41.7902 23.4652 41.7596 23.1829 41.6427C22.9006 41.5257 22.6593 41.3277 22.4896 41.0737C22.3198 40.8196 22.2292 40.5209 22.2292 40.2154C22.2292 39.9098 22.3198 39.6111 22.4896 39.3571C22.6593 39.103 22.9006 38.905 23.1829 38.788C23.4652 38.6711 23.7758 38.6405 24.0755 38.7001C24.3752 38.7597 24.6505 38.9068 24.8665 39.1228C25.01 39.2663 25.1238 39.4366 25.2015 39.6241C25.2792 39.8115 25.3191 40.0124 25.3191 40.2154C25.3191 40.4183 25.2792 40.6192 25.2015 40.8066C25.1238 40.9941 25.01 41.1644 24.8665 41.3079ZM31.157 41.3079C30.4757 41.9939 29.6377 42.5039 28.7155 42.794C27.7932 43.0841 26.8142 43.1456 25.8628 42.9732C26.2511 42.6901 26.5763 42.3293 26.8177 41.9138C27.0591 41.4982 27.2115 41.037 27.2651 40.5595C27.3187 40.0819 27.2723 39.5984 27.1291 39.1397C26.9858 38.681 26.7486 38.2571 26.4327 37.895C26.1168 37.5329 25.7291 37.2404 25.294 37.0362C24.859 36.832 24.3863 36.7204 23.9059 36.7087C23.4255 36.697 22.9479 36.7853 22.5034 36.9681C22.059 37.1509 21.6574 37.4241 21.3242 37.7704C21.2175 37.8777 21.1178 37.9919 21.0258 38.1121C20.8421 37.0694 20.9379 35.9966 21.3035 35.003C21.6692 34.0093 22.2915 33.1303 23.1073 32.4554C23.9231 31.7805 24.9031 31.3338 25.9477 31.1607C26.9922 30.9877 28.0639 31.0945 29.0538 31.4703C29.241 31.5385 29.4241 31.6172 29.6024 31.7061C30.1862 31.9935 30.7193 32.3739 31.1811 32.8323C31.5908 33.2416 31.9408 33.7066 32.2207 34.2136C32.8312 35.3521 33.0598 36.6566 32.8726 37.9348C32.6854 39.2129 32.0924 40.3971 31.1811 41.3127L31.157 41.3079ZM42.3422 23.0958L33.1977 32.2403C32.9896 31.9697 32.7646 31.7124 32.5239 31.4703C32.3651 31.3115 32.1966 31.1574 32.0426 31.013L32.7212 30.9697C32.9491 30.9473 33.1614 30.8443 33.3202 30.6793C33.479 30.5144 33.5738 30.2983 33.5875 30.0697L33.7416 27.7643L36.0421 27.6151C36.2809 27.6035 36.5068 27.5034 36.6758 27.3343C36.8448 27.1653 36.9449 26.9394 36.9566 26.7007L37.1058 24.4049L39.4016 24.2509C39.6338 24.2351 39.8524 24.1358 40.017 23.9712C40.1816 23.8066 40.281 23.5879 40.2968 23.3557L40.446 21.0599L42.3134 20.9396L42.3808 21.007L42.3422 23.0958Z" fill="#DDE1D6"/>
</svg>
