<svg width="64" height="64" viewBox="0 0 64 64" fill="none" xmlns="http://www.w3.org/2000/svg">
<circle cx="32" cy="32" r="32" fill="#435730"/>
<path d="M44.9187 37.3981C44.8892 37.225 44.8534 37.0738 44.8162 36.9392C44.5918 36.1378 43.8942 35.5274 43.039 35.3864L37.4847 34.462C36.6667 34.3248 35.8474 34.6415 35.3447 35.2851C35.2755 35.3736 35.2088 35.4633 35.1473 35.5543C35.0563 35.6877 34.8755 35.8121 34.6793 35.7262C31.7983 34.4735 29.5237 32.1989 28.2723 29.3179C28.1851 29.1191 28.3069 28.9448 28.4376 28.8563C28.5595 28.7742 28.6774 28.6858 28.7915 28.5935C29.4159 28.0883 29.7263 27.2805 29.6006 26.4843L28.7403 21.0287C28.6082 20.1927 28.0351 19.5093 27.2427 19.2477C27.0568 19.1862 26.8414 19.1298 26.5914 19.0849C24.9682 18.7952 23.3077 19.2541 22.0319 20.3491C20.6946 21.4979 19.9535 23.1674 20.0023 24.9265C20.2831 35.3403 28.6582 43.7167 39.072 43.9975C39.1246 43.9988 39.1772 44 39.2298 44C40.9184 44 42.5147 43.2691 43.6289 41.9792C44.7328 40.7009 45.2033 39.0303 44.9187 37.3981ZM42.1711 40.7227C41.4005 41.6138 40.2798 42.0896 39.122 42.0768C29.7314 41.8229 22.1768 34.2671 21.9229 24.8752C21.8922 23.6969 22.3871 22.5789 23.2846 21.8083C23.9629 21.2262 24.7719 20.921 25.6156 20.921C25.8259 20.921 26.0388 20.9402 26.2516 20.9774C26.4003 21.0043 26.5272 21.0364 26.6375 21.0736C26.7439 21.1082 26.8221 21.2069 26.8413 21.3287L27.7017 26.7844C27.7209 26.9036 27.6748 27.0241 27.5838 27.0972C27.5094 27.1575 27.4337 27.2139 27.3555 27.2664C26.4144 27.9062 26.0657 29.0653 26.508 30.0846C27.9543 33.4131 30.5841 36.0429 33.9113 37.4892C34.9268 37.9302 36.0884 37.5828 36.7359 36.6379C36.7744 36.5827 36.8141 36.5276 36.8577 36.4712C36.9269 36.3827 37.0475 36.3404 37.1693 36.3583L42.7237 37.2827C42.8416 37.3032 42.9403 37.375 42.9647 37.4583C42.9878 37.5378 43.007 37.6264 43.0249 37.7277C43.2096 38.7893 42.8981 39.8804 42.1711 40.7227Z" fill="#DDE1D6"/>
</svg>
