<svg width="27" height="21" viewBox="0 0 27 21" fill="none" xmlns="http://www.w3.org/2000/svg">
<path d="M26.207 11.1849L16.8736 20.2162C16.6789 20.4046 16.4228 20.5 16.1668 20.5C15.9108 20.5 15.6548 20.4059 15.4601 20.2162C15.0695 19.8382 15.0695 19.2253 15.4601 18.8473L23.0869 11.4675H1.50001C0.948005 11.4675 0.5 11.034 0.5 10.4999C0.5 9.96572 0.948005 9.53222 1.50001 9.53222H23.0856L15.4588 2.15236C15.0682 1.77434 15.0682 1.16154 15.4588 0.783517C15.8495 0.405494 16.4829 0.405494 16.8736 0.783517L26.207 9.81476C26.5977 10.1954 26.5977 10.8069 26.207 11.1849Z" fill="#435730"/>
</svg>
