<svg width="1920" height="1080" viewBox="0 0 1920 1080" fill="none" xmlns="http://www.w3.org/2000/svg">
<g clip-path="url(#clip0_1_15)">
<rect width="1920" height="1080" fill="white"/>
<g opacity="0.4" clip-path="url(#clip1_1_15)">
<path opacity="0.8" d="M1284 800.41C1290.93 802.106 1297.05 807.445 1301.66 812.744C1306.41 818.075 1310.19 823.95 1313.8 829.989C1320.99 842.137 1327.45 855.257 1338.6 869.801C1360.94 899.147 1395.7 903.458 1409.59 906.307C1415.92 907.583 1426.06 909.505 1434.72 910.766C1436.69 911.046 1438.57 911.318 1440.32 911.567C1422.23 914.898 1407.41 912.462 1393.48 908.688C1378.12 904.61 1363.65 898.47 1342.88 896.929C1329 895.995 1316.29 898.696 1307.16 903.49C1297.91 908.112 1292.47 914.641 1289.75 920.026C1286.87 925.295 1286.73 930.259 1286.75 933.224C1286.88 936.314 1287.49 938.002 1287.49 938.002C1297.92 929.481 1309.55 929.372 1319.49 932.112C1329.72 934.866 1339.13 940.065 1352.42 944.158C1365.69 948.329 1379.08 946.633 1390.32 942.788C1401.6 938.967 1410.51 933.053 1415.86 930.034C1420.66 927.295 1428.24 922.602 1434.39 918.361C1437.8 915.941 1440.83 913.785 1442.85 912.353C1461.12 923.372 1479.74 933.8 1498.72 943.543C1485.21 946.127 1473.72 945.676 1462.24 944.757C1447.93 943.683 1433.22 941.847 1415.6 946.22C1391.93 952.539 1381.6 966.601 1378.63 976.469C1375.55 986.671 1378.07 993.465 1378.07 993.465C1387.33 986.391 1397.23 985.146 1406.77 985.613C1416.44 986.103 1425.84 988.251 1437.04 988.741C1448.2 989.27 1457.49 984.679 1465.67 978.834C1473.79 973.052 1480.46 966.056 1484.67 962.453C1489.26 958.461 1497.85 951.006 1503.59 946.018C1506.87 947.675 1510.16 949.317 1513.47 950.928C1517.55 953.784 1522.74 956.835 1527.33 958.516C1529.49 959.232 1531.4 959.792 1533.04 960.134C1536.99 961.924 1540.92 963.73 1544.9 965.449C1553.8 969.247 1562.8 972.835 1571.85 976.298C1560.29 977.426 1550.72 977.348 1541.11 976.687C1534.24 976.259 1527.49 975.652 1520.57 975.434C1513.44 975.317 1507.14 975.146 1497.99 976.881C1487.05 979.153 1480.74 982.461 1475.82 985.776C1471.02 989.091 1467.73 992.616 1464.65 995.908C1461.83 998.982 1459.02 1002.06 1456.91 1004.36C1454.91 1006.55 1453.78 1008.05 1453.78 1008.05C1466.03 1011 1475.78 1012.43 1486.05 1014.83C1490.97 1015.86 1496.33 1016.99 1501.33 1018.04C1503.96 1018.54 1506.48 1019.02 1508.8 1019.46C1511.12 1019.92 1513.49 1020.38 1516.69 1020.58C1528.53 1021.5 1537.64 1016.61 1545.22 1010.68C1552.74 1004.74 1558.84 997.729 1562.9 994.118C1566.47 990.896 1572.47 985.628 1578.07 981.418C1578.9 980.788 1579.71 980.188 1580.51 979.605C1603.9 988.219 1627.77 995.55 1652.05 1001.22C1632.34 1007.53 1616.6 1010.66 1600.94 1013.33C1583.61 1016.34 1566.58 1019 1548.1 1026.59C1544.99 1027.88 1542.08 1029.2 1539.25 1030.63C1536.06 1032.28 1533.59 1033.79 1531.31 1035.32C1526.76 1038.36 1523.28 1041.28 1520.38 1044.02C1514.64 1049.51 1511.08 1054.44 1508.14 1058.81C1505.24 1063.18 1503.02 1067.02 1501.52 1069.81C1500 1072.58 1499.35 1074.4 1499.35 1074.4C1514.98 1072.63 1526.97 1069.88 1539.53 1068.55C1545.77 1067.81 1551.83 1067.21 1557.81 1066.93C1564.14 1066.47 1571.06 1065.66 1578.36 1064.18C1592.98 1061.26 1603.47 1053.71 1612.01 1045.74C1620.46 1037.74 1627 1029.3 1631.44 1024.72C1635.37 1020.7 1641.9 1013.99 1647.88 1008.62C1650.69 1006.03 1653.33 1003.73 1655.34 1002C1668.26 1004.93 1681.3 1007.37 1694.44 1009.25C1705.23 1010.85 1716.11 1011.96 1727.01 1012.76C1691.96 1040.45 1663.13 1041.81 1627.67 1058.78C1602.89 1070.52 1590.64 1083.13 1584.23 1093.28C1577.85 1103.35 1577.65 1110.93 1577.65 1110.93C1606.76 1098.4 1628.89 1103.66 1661.37 1093.77C1693.75 1083.66 1706.65 1053.91 1713.44 1042.41C1717.81 1034.92 1725.81 1020.42 1729.88 1013C1752.16 1014.48 1774.57 1014.19 1796.81 1012.01C1786.61 1027.89 1772.93 1037.84 1759.44 1046.64C1743.77 1057.02 1726.45 1065.84 1709.96 1084.44C1689.8 1107.02 1684.31 1126.3 1683.87 1138.74C1683.43 1151.31 1687.64 1157.64 1687.64 1157.64C1696.52 1143.84 1706.97 1135.57 1718.16 1128.2C1723.8 1124.65 1729.93 1120.79 1735.68 1117.17C1741.84 1113.31 1748.09 1108.76 1754.09 1104.91C1767.1 1096.04 1776.06 1084.09 1782.33 1072.11C1788.59 1060.19 1791.63 1048.68 1793.67 1042.1C1795.57 1036.23 1798.06 1026.55 1799.46 1018.56C1799.92 1016.01 1800.26 1013.66 1800.53 1011.6C1817.21 1009.81 1833.78 1007.05 1850.1 1003.01C1857.09 1001.26 1864.03 999.293 1870.91 997.13C1862.42 1006.39 1855.5 1015.07 1849.04 1023.25C1840.62 1034.15 1833.02 1044.18 1825.92 1054.27C1818.85 1064.3 1812.04 1074.58 1805.97 1085.32C1800.13 1095.47 1793.98 1106.31 1788.38 1119.42C1780.91 1136.85 1777.47 1152.79 1777.21 1165.94C1776.88 1179.12 1779.58 1189.25 1782.88 1196.18C1786.33 1203.18 1790.15 1207.07 1793.09 1209.27C1795.96 1211.44 1797.77 1212.01 1797.77 1212.01C1794.74 1192.54 1801.16 1177.17 1809.07 1163.84C1817.17 1150.27 1827.48 1138.09 1838.48 1120.3C1849.86 1101.6 1853.32 1085.05 1856.32 1070.02C1859.12 1055.12 1860.44 1041.89 1862.36 1033.99C1863.98 1026.97 1867.08 1015.43 1871.15 1005.64C1872.64 1001.92 1874.25 998.461 1875.66 995.605C1892.12 990.188 1908.19 983.574 1923.56 975.512C1930.44 971.932 1937.17 968.111 1943.77 964.064C1943.43 964.484 1943.09 964.905 1942.75 965.317C1935.86 973.986 1929.63 982.57 1924.08 991.698C1918.38 1000.78 1913.16 1010.37 1908.65 1021.2C1904.09 1032.03 1900.11 1044.08 1897.76 1058.34C1895.32 1072.51 1896.08 1087.08 1898.96 1099.39C1901.86 1111.96 1906.59 1122.57 1911.84 1131.49C1922.44 1149.35 1934.72 1160.29 1941.84 1166.84C1948.17 1172.77 1959.06 1181.33 1968.62 1186.54C1978.19 1191.99 1985.79 1193.9 1985.79 1193.9C1973.17 1185.33 1963.63 1172.08 1957.18 1159.27C1950.64 1146.27 1946.57 1133.08 1944.17 1120.08C1939.17 1093.68 1941.15 1070.37 1946.5 1040.43C1953.88 1000.89 1960.17 978.632 1963.5 963.216C1965.02 957.029 1966.07 952.026 1966.84 948.259C1974.15 942.625 1981.2 936.563 1987.87 929.917L1987.89 929.901C1989.4 928.384 1989.38 925.925 1987.87 924.415C1986.35 922.906 1983.89 922.921 1982.39 924.439L1982.15 924.688C1977.23 929.66 1971.96 934.368 1966.46 938.866C1965.63 938.788 1964.77 938.711 1963.99 938.641C1962.42 938.213 1960.93 937.8 1959.52 937.419C1956.6 936.695 1953.67 935.668 1950.75 934.322C1947.86 933.038 1945.05 931.964 1942.3 930.376C1931.29 924.594 1921.61 917.629 1912.45 910.338C1894.08 895.715 1877.62 879.638 1854.72 863.397C1824.24 841.701 1801.03 834.783 1786.18 833.654C1771.14 832.643 1764.5 836.822 1764.5 836.822C1800.94 857.677 1811.81 883.342 1844.46 912.719C1877.11 942.571 1917.68 944.788 1934.17 945.442C1940.58 945.917 1950.5 945.932 1958.81 944.874C1946.69 953.979 1933.61 962.057 1920.23 969.107C1917.34 970.648 1914.42 972.142 1911.48 973.582C1903.53 974.477 1895.31 973.177 1887.77 970.111C1876.12 965.605 1866 958.313 1856.88 950.018C1847.52 941.629 1839.82 932.664 1829.22 922.127C1819.79 912.913 1810.29 903.248 1798.94 892.82C1768.99 864.751 1743.99 852.681 1727.93 849.599C1719.85 847.95 1713.99 848.136 1710.13 848.736C1706.31 849.304 1704.51 850.206 1704.51 850.206C1724.01 862.572 1735.74 877.015 1746.69 892.066C1757.68 907.217 1767.68 923.551 1784.61 942.088C1788.86 946.71 1793.34 950.913 1797.93 954.633C1800.36 956.601 1802.24 958.08 1804.23 959.527C1806.36 961.138 1808.47 962.656 1810.72 964.189C1819.62 970.313 1829.1 975.278 1838.1 978.733C1856.36 985.729 1872.38 986.305 1881.44 986.017C1881.71 986.017 1882.02 986.002 1882.3 985.994C1871.22 990.072 1859.92 993.589 1848.48 996.546C1837.33 999.387 1826.04 1001.6 1814.67 1003.36C1793.7 994.523 1778.88 979.947 1766.32 965.449C1751.35 948.15 1739.08 929.287 1718.25 909.279C1706.31 897.793 1694.52 887.451 1683.62 881.007C1672.72 874.401 1662.83 871.109 1655 870.222C1647.12 869.335 1641.62 870.587 1638.28 872.074C1634.94 873.56 1633.64 874.914 1633.64 874.914C1642.66 878.011 1649.75 883.723 1655.4 889.887C1661.09 896.089 1665.56 902.82 1669.82 909.847C1674.08 916.89 1678.06 924.26 1683.06 932.182C1685.46 936.088 1688.75 940.454 1691.3 944.181C1693.92 947.932 1696.84 951.956 1700.06 956.119C1712.86 972.85 1728.91 984.29 1744 991.457C1759.06 998.702 1772.83 1001.43 1780.81 1003.22C1784.61 1004.16 1789.71 1005.11 1795.08 1005.88C1770.02 1008.43 1744.71 1008.51 1719.56 1006.38C1710.64 1004.45 1702.06 998.468 1695.55 991.293C1687.73 982.539 1682.01 972.539 1677.34 962.049C1674.96 956.835 1672.86 951.419 1670.63 945.823L1667.02 936.921C1665.74 934.003 1664.45 931.1 1663.2 928.252C1658.06 916.75 1652.19 904.571 1643.77 891.754C1632.62 874.681 1619.75 862.44 1607.76 855.031C1595.71 847.529 1584.67 845.078 1576.71 844.666C1572.57 844.65 1569.2 845.016 1566.45 845.553C1563.63 846.284 1561.46 847.156 1559.8 847.965C1556.5 849.592 1555.2 850.985 1555.2 850.985C1575.04 856.72 1586.35 870.136 1594.05 884.105C1601.92 898.385 1606.92 913.948 1615.43 933.567C1619.62 943.333 1625.07 952.485 1630.49 959.823C1635.75 967.208 1642.21 974.889 1648.65 980.772C1660.12 991.457 1671.81 997.667 1679.73 1001.29C1658.51 997.682 1637.54 992.671 1616.88 986.523C1604.4 974.92 1598.8 960.251 1595.22 945.878C1591.05 928.89 1588.13 908.696 1576.29 887.731C1568.42 873.755 1559.19 864.261 1550.78 858.222C1542.32 852.144 1534.64 849.374 1528.47 848.183C1522.9 847.164 1518.58 847.389 1515.4 847.926C1513.99 845.459 1512.47 843.187 1510.82 841.156C1504.56 833.257 1497.33 829.219 1491.55 827.771C1485.72 826.261 1481.23 826.946 1478.25 827.81C1475.29 828.682 1473.79 829.685 1473.79 829.685C1483.92 837.537 1485.91 848.572 1484.98 858.424C1484.09 868.424 1480.85 878.953 1480.11 892.509C1478.89 904.719 1483.39 918.034 1490.06 927.785C1493.07 932.345 1496.47 936.174 1499.72 939.372C1488.08 933.489 1476.57 927.333 1465.2 920.937C1456.76 908.882 1455.26 895.669 1455.17 882.875C1454.92 868.603 1456.65 853.28 1450.4 834.285C1446.13 821.787 1439.57 812.55 1432.75 807.017C1426.23 801.188 1419.37 798.931 1414.17 797.85C1403.18 796.223 1396.96 799.803 1396.96 799.803C1405.93 808.207 1409.04 818.215 1409.95 827.911C1410.82 837.802 1409.31 847.382 1409.56 858.93C1409.73 870.44 1414.87 880.774 1421.6 889.451C1426.11 895.287 1431.24 899.98 1435.48 903.544C1432.94 901.995 1430.38 900.47 1427.85 898.898C1416.44 890.354 1407.53 881.179 1399.38 871.786C1386.5 856.915 1375.55 841.327 1358.9 825.032C1336.86 803.351 1316.88 794.869 1302.72 794.067C1295.71 793.671 1290.6 795.071 1287.7 797.017C1284.86 798.838 1284.02 800.371 1284.02 800.371L1284 800.41ZM1531.99 883.412C1536.11 895.552 1538.34 908.019 1542.43 922.804C1544.47 930.221 1547.42 936.765 1551.02 942.788C1554.66 948.928 1559.1 954.71 1563.83 959.629C1570.33 966.469 1577.22 971.403 1582.82 974.951C1582.54 974.99 1582.23 975.045 1581.96 975.084C1570.08 970.796 1558.31 966.197 1546.66 961.325C1541.69 959.208 1536.74 957.014 1531.82 954.788C1529.32 951.504 1527.42 947.574 1526.23 943.621C1524.08 936.641 1523.61 929.396 1523.76 922.19C1523.91 914.929 1524.7 907.676 1525.15 899.669C1525.33 895.568 1525.52 891.536 1525.25 886.595C1524.99 881.77 1524.58 877.84 1523.8 872.969C1523.22 869.311 1522.39 865.778 1521.38 862.385C1526.25 869.093 1529.51 876.175 1531.99 883.412H1531.99Z" fill="#DDE1D6"/>
</g>
<g opacity="0.5">
<circle opacity="0.35" cy="1080" r="738" fill="#DDE1D6" fill-opacity="0.5"/>
<circle cx="-6.10352e-05" cy="1080" r="602.794" fill="#DDE1D6" fill-opacity="0.5"/>
<circle cy="1080" r="396.229" fill="#DDE1D6"/>
</g>
</g>
<defs>
<clipPath id="clip0_1_15">
<rect width="1920" height="1080" fill="white"/>
</clipPath>
<clipPath id="clip1_1_15">
<rect width="705.011" height="418.013" fill="white" transform="matrix(-1 0 0 -1 1989.01 1212.01)"/>
</clipPath>
</defs>
</svg>
