<svg width="340" height="65" viewBox="0 0 340 65" fill="none" xmlns="http://www.w3.org/2000/svg">
<rect x="0.5" width="339" height="65" rx="32.5" fill="#DDE1D6"/>
<path d="M101.628 35.792C101.436 35.6 101.348 35.344 101.364 35.024C101.396 34.704 101.572 34.448 101.892 34.256L102.492 33.92C102.876 34.864 103.54 35.552 104.484 35.984C105.428 36.4 106.444 36.624 107.532 36.656C108.844 36.672 109.876 36.384 110.628 35.792C111.38 35.184 111.756 34.456 111.756 33.608C111.756 33 111.572 32.488 111.204 32.072C110.836 31.64 110.364 31.304 109.788 31.064C109.212 30.824 108.572 30.608 107.868 30.416C107.18 30.224 106.484 30.016 105.78 29.792C105.092 29.552 104.46 29.28 103.884 28.976C103.308 28.656 102.836 28.208 102.468 27.632C102.116 27.056 101.94 26.368 101.94 25.568C101.94 24.256 102.484 23.168 103.572 22.304C104.676 21.424 106.22 20.984 108.204 20.984C110.668 20.984 112.476 21.736 113.628 23.24C113.82 23.432 113.9 23.696 113.868 24.032C113.852 24.352 113.684 24.608 113.364 24.8L112.764 25.112C112.06 23.4 110.652 22.544 108.54 22.544C107.356 22.544 106.428 22.816 105.756 23.36C105.1 23.888 104.78 24.488 104.796 25.16C104.796 25.736 104.972 26.224 105.324 26.624C105.692 27.008 106.164 27.312 106.74 27.536C107.316 27.744 107.948 27.944 108.636 28.136C109.324 28.312 110.012 28.52 110.7 28.76C111.404 28.984 112.036 29.264 112.596 29.6C113.172 29.92 113.636 30.384 113.988 30.992C114.356 31.6 114.54 32.328 114.54 33.176C114.54 34.552 113.94 35.744 112.74 36.752C111.556 37.76 109.86 38.256 107.652 38.24C106.388 38.24 105.212 38.032 104.124 37.616C103.036 37.2 102.204 36.592 101.628 35.792ZM116.099 26H117.659C118.299 26 118.819 26.152 119.219 26.456C119.619 26.76 119.819 27.208 119.819 27.8V36.128C119.819 36.352 119.883 36.528 120.011 36.656C120.139 36.784 120.315 36.848 120.539 36.848H121.019V38H119.435C118.811 38 118.299 37.848 117.899 37.544C117.499 37.24 117.299 36.792 117.299 36.2V27.872C117.299 27.392 117.059 27.152 116.579 27.152H116.099V26ZM119.339 23.648C119.035 23.952 118.667 24.104 118.235 24.104C117.803 24.104 117.427 23.952 117.107 23.648C116.803 23.344 116.651 22.976 116.651 22.544C116.651 22.112 116.803 21.744 117.107 21.44C117.427 21.12 117.803 20.96 118.235 20.96C118.667 20.96 119.035 21.12 119.339 21.44C119.659 21.744 119.819 22.112 119.819 22.544C119.819 22.976 119.659 23.344 119.339 23.648ZM124.211 36.464C123.123 35.264 122.579 33.776 122.579 32C122.579 30.224 123.123 28.744 124.211 27.56C125.299 26.36 126.619 25.76 128.171 25.76C129.675 25.76 130.891 26.36 131.819 27.56C131.835 26.52 132.483 26 133.763 26H134.339V38C134.339 39.824 133.779 41.32 132.659 42.488C131.555 43.656 130.107 44.24 128.315 44.24C126.507 44.24 125.091 43.672 124.067 42.536C123.571 41.976 123.635 41.528 124.259 41.192L124.931 40.856C125.171 41.352 125.555 41.76 126.083 42.08C126.611 42.416 127.235 42.584 127.955 42.584C128.995 42.584 129.899 42.2 130.667 41.432C131.435 40.664 131.819 39.584 131.819 38.192V36.32C130.971 37.6 129.755 38.24 128.171 38.24C126.635 38.24 125.315 37.648 124.211 36.464ZM126.299 28.616C125.547 29.416 125.171 30.544 125.171 32C125.171 33.456 125.547 34.592 126.299 35.408C127.067 36.208 127.907 36.608 128.819 36.608C129.635 36.608 130.339 36.32 130.931 35.744C131.523 35.152 131.819 34.392 131.819 33.464V30.56C131.819 29.616 131.523 28.856 130.931 28.28C130.339 27.688 129.635 27.392 128.819 27.392C127.907 27.392 127.067 27.8 126.299 28.616ZM136.63 27.152V26H138.19C138.782 26 139.27 26.136 139.654 26.408C140.054 26.68 140.278 27.08 140.326 27.608C140.79 27.016 141.358 26.56 142.03 26.24C142.718 25.92 143.414 25.76 144.118 25.76C145.59 25.76 146.79 26.24 147.718 27.2C148.646 28.144 149.11 29.648 149.11 31.712V36.128C149.11 36.352 149.174 36.528 149.302 36.656C149.446 36.784 149.622 36.848 149.83 36.848H150.31V38H148.582C147.958 38 147.47 37.848 147.118 37.544C146.766 37.24 146.59 36.792 146.59 36.2V31.304C146.59 29.96 146.318 28.968 145.774 28.328C145.23 27.688 144.542 27.368 143.71 27.368C142.814 27.368 142.03 27.688 141.358 28.328C140.686 28.952 140.35 29.8 140.35 30.872V36.344C140.35 36.952 140.206 37.384 139.918 37.64C139.646 37.88 139.206 38 138.598 38H137.83V27.872C137.83 27.392 137.59 27.152 137.11 27.152H136.63ZM157.654 22.352V21.2H159.382C160.022 21.2 160.542 21.352 160.942 21.656C161.342 21.96 161.542 22.408 161.542 23L161.566 31.232C161.566 32.272 161.686 33.168 161.926 33.92C162.166 34.656 162.486 35.216 162.886 35.6C163.286 35.968 163.694 36.232 164.11 36.392C164.542 36.552 164.998 36.632 165.478 36.632C166.454 36.632 167.294 36.344 167.998 35.768C168.718 35.192 169.134 34.352 169.246 33.248V22.856C169.246 21.752 169.894 21.2 171.19 21.2H171.958V36.128C171.958 36.608 172.198 36.848 172.678 36.848H173.158V38H171.406C170.798 38 170.294 37.864 169.894 37.592C169.51 37.304 169.294 36.896 169.246 36.368C168.222 37.616 166.806 38.24 164.998 38.24C164.438 38.24 163.894 38.184 163.366 38.072C162.854 37.96 162.318 37.752 161.758 37.448C161.198 37.128 160.71 36.728 160.294 36.248C159.878 35.752 159.534 35.096 159.262 34.28C158.99 33.448 158.854 32.496 158.854 31.424V23.072C158.854 22.592 158.614 22.352 158.134 22.352H157.654ZM174.271 26H175.831C176.423 26 176.911 26.136 177.295 26.408C177.695 26.68 177.919 27.072 177.967 27.584C178.911 26.368 180.127 25.76 181.615 25.76C183.167 25.76 184.487 26.36 185.575 27.56C186.679 28.744 187.231 30.224 187.231 32C187.231 33.776 186.679 35.264 185.575 36.464C184.487 37.648 183.167 38.24 181.615 38.24C180.047 38.24 178.839 37.6 177.991 36.32V42.32C177.991 43.44 177.343 44 176.047 44H175.471V27.92C175.471 27.408 175.231 27.152 174.751 27.152H174.271V26ZM177.967 33.464C177.967 34.392 178.263 35.152 178.855 35.744C179.447 36.32 180.151 36.608 180.967 36.608C181.879 36.608 182.719 36.208 183.487 35.408C184.255 34.592 184.639 33.456 184.639 32C184.623 30.544 184.231 29.416 183.463 28.616C182.711 27.8 181.879 27.392 180.967 27.392C180.151 27.392 179.447 27.688 178.855 28.28C178.263 28.856 177.967 29.616 177.967 30.56V33.464Z" fill="#27321C"/>
<path d="M239.207 33.1849L229.874 42.2162C229.679 42.4046 229.423 42.5 229.167 42.5C228.911 42.5 228.655 42.4059 228.46 42.2162C228.069 41.8382 228.069 41.2253 228.46 40.8473L236.087 33.4675H214.5C213.948 33.4675 213.5 33.034 213.5 32.4999C213.5 31.9657 213.948 31.5322 214.5 31.5322H236.086L228.459 24.1524C228.068 23.7743 228.068 23.1615 228.459 22.7835C228.85 22.4055 229.483 22.4055 229.874 22.7835L239.207 31.8148C239.598 32.1954 239.598 32.8069 239.207 33.1849Z" fill="#435730"/>
</svg>
